<?xml version="1.0" standalone="no"?>
<!DOCTYPE svg PUBLIC "-//W3C//DTD SVG 20010904//EN"
 "http://www.w3.org/TR/2001/REC-SVG-20010904/DTD/svg10.dtd">
<svg version="1.0" xmlns="http://www.w3.org/2000/svg"
 width="512.000000pt" height="512.000000pt" viewBox="0 0 512.000000 512.000000"
 preserveAspectRatio="xMidYMid meet">
<metadata>
Created by potrace 1.11, written by Peter Selinger 2001-2013
</metadata>
<g transform="translate(0.000000,512.000000) scale(0.100000,-0.100000)"
fill="#000000" stroke="none">
<path d="M2497 5034 c-1 -1 -47 -4 -102 -7 -524 -31 -1012 -230 -1445 -588
-45 -38 -188 -179 -244 -242 -130 -146 -270 -354 -364 -542 -37 -73 -122 -276
-126 -300 -1 -5 -5 -15 -8 -21 -4 -6 -10 -25 -13 -42 -3 -17 -10 -43 -16 -59
-10 -28 -34 -129 -50 -213 -4 -25 -10 -54 -12 -65 -4 -18 -14 -104 -23 -190
-6 -54 -5 -349 0 -415 8 -86 24 -199 43 -285 8 -38 16 -79 19 -91 2 -11 18
-67 34 -124 68 -228 168 -441 299 -640 31 -47 58 -89 60 -95 2 -5 7 -12 11
-15 3 -3 26 -30 49 -60 115 -147 261 -297 386 -395 28 -22 52 -42 55 -45 3 -3
28 -21 55 -39 28 -19 52 -38 55 -41 14 -19 346 -207 380 -215 3 -1 16 -6 30
-12 122 -52 296 -113 362 -127 148 -32 276 -56 329 -61 35 -4 78 -9 94 -11 38
-5 380 -5 420 0 17 2 55 7 85 10 30 4 80 11 110 16 30 6 69 13 85 15 17 3 44
10 60 15 17 5 41 11 55 14 14 2 45 10 70 17 25 7 50 13 55 15 39 8 231 86 334
135 401 192 736 483 987 856 71 106 205 354 234 433 86 238 136 422 155 565 4
28 9 61 11 75 24 144 22 437 -5 635 -25 182 -89 436 -136 540 -7 17 -23 54
-34 83 -38 97 -128 270 -182 350 -16 24 -29 45 -29 47 0 3 -20 32 -45 66 -25
34 -42 66 -38 72 3 5 1 7 -4 4 -6 -4 -31 19 -56 51 -254 323 -611 588 -1002
747 -129 52 -250 89 -430 130 -18 5 -89 16 -130 21 -22 3 -46 7 -53 9 -20 7
-368 24 -375 19z m-411 -1525 c37 -17 48 -32 90 -112 26 -51 61 -119 79 -152
18 -33 60 -112 93 -175 33 -63 92 -176 131 -250 39 -73 71 -138 71 -143 0 -20
21 8 55 75 58 112 145 278 175 333 15 28 65 122 110 210 102 196 112 211 154
225 67 22 127 -8 141 -70 7 -31 0 -47 -85 -205 -66 -125 -116 -218 -161 -302
-23 -43 -58 -109 -79 -148 -21 -38 -59 -110 -85 -160 -26 -49 -61 -114 -78
-144 l-30 -54 -1 -389 -1 -390 -34 -30 c-30 -27 -39 -30 -79 -25 -30 3 -53 13
-71 31 l-26 26 -1 388 -2 387 -29 55 c-16 30 -45 84 -65 120 -19 36 -78 146
-131 245 -52 99 -139 261 -192 360 -53 99 -98 191 -101 205 -5 27 26 95 44 95
6 0 14 3 18 8 13 13 46 8 90 -14z"/>
</g>
</svg>
